<?xml version="1.0"?>
<svg xmlns="http://www.w3.org/2000/svg" id="Layer_1" data-name="Layer 1" viewBox="0 0 512 512" width="512" height="512"><title>Character</title><path d="M218.734,195.754a25.353,25.353,0,1,0-25.352,25.352A25.381,25.381,0,0,0,218.734,195.754Z"/><path d="M318.618,221.106a25.353,25.353,0,1,0-25.352-25.352A25.381,25.381,0,0,0,318.618,221.106Z"/><path d="M237,382.942v77.32a19.5,19.5,0,1,0,39,0v-77.32a44,44,0,0,1,88,0v77.32A19.713,19.713,0,0,0,383.52,480h2.308C396.6,480,405,471.038,405,460.262v-278.7C405,99.2,338.363,32.2,256,32.2S107,99.2,107,181.565v278.7C107,471.038,115.4,480,126.172,480h3.463A19.582,19.582,0,0,0,149,460.262v-77.32a44,44,0,0,1,88,0ZM318.618,156.4a39.353,39.353,0,1,1-39.352,39.353A39.4,39.4,0,0,1,318.618,156.4ZM154.029,195.754a39.353,39.353,0,1,1,39.353,39.352A39.4,39.4,0,0,1,154.029,195.754Z"/></svg>
